<svg width="153" height="26" viewBox="0 0 153 26" fill="none" xmlns="http://www.w3.org/2000/svg">
<path d="M18.7464 3.74792L12.2724 21.9999H6.70837L0.234375 3.74792H4.96637L9.49037 17.5279L14.0404 3.74792H18.7464ZM25.0506 7.30992V11.0019H31.0046V14.4339H25.0506V18.4379H31.7846V21.9999H20.6046V3.74792H31.7846V7.30992H25.0506ZM43.979 21.9999L40.183 15.1099H39.117V21.9999H34.671V3.74792H42.133C43.5717 3.74792 44.7937 3.99925 45.799 4.50192C46.8217 5.00459 47.5843 5.69792 48.087 6.58192C48.5897 7.44859 48.841 8.41925 48.841 9.49392C48.841 10.7072 48.4943 11.7906 47.801 12.7439C47.125 13.6972 46.1197 14.3732 44.785 14.7719L48.997 21.9999H43.979ZM39.117 11.9639H41.873C42.6877 11.9639 43.2943 11.7646 43.693 11.3659C44.109 10.9672 44.317 10.4039 44.317 9.67592C44.317 8.98259 44.109 8.43659 43.693 8.03792C43.2943 7.63925 42.6877 7.43992 41.873 7.43992H39.117V11.9639ZM56.0779 3.74792V21.9999H51.6319V3.74792H56.0779ZM71.1819 3.74792V7.30992H63.7459V11.1579H69.3099V14.6159H63.7459V21.9999H59.2999V3.74792H71.1819ZM89.1707 3.74792L82.8527 15.9679V21.9999H78.4066V15.9679L72.0887 3.74792H77.1327L80.6687 11.3919L84.1787 3.74792H89.1707ZM108.561 9.05192C108.561 10.6119 108.05 11.8686 107.027 12.8219C106.005 13.7752 104.471 14.2519 102.425 14.2519H98.7598V21.9999H96.9398V3.82592H102.425C104.453 3.82592 105.979 4.30259 107.001 5.25592C108.041 6.20925 108.561 7.47459 108.561 9.05192ZM102.425 12.6919C105.268 12.6919 106.689 11.4786 106.689 9.05192C106.689 7.83859 106.351 6.91992 105.675 6.29592C104.999 5.67192 103.916 5.35992 102.425 5.35992H98.7598V12.6919H102.425ZM113.435 20.5179H119.961V21.9999H111.615V3.82592H113.435V20.5179ZM124.301 3.82592V15.2659C124.301 17.0686 124.725 18.4032 125.575 19.2699C126.441 20.1366 127.62 20.5699 129.111 20.5699C130.601 20.5699 131.763 20.1452 132.595 19.2959C133.444 18.4292 133.869 17.0859 133.869 15.2659V3.82592H135.689V15.2399C135.689 17.5452 135.073 19.2786 133.843 20.4399C132.629 21.6012 131.043 22.1819 129.085 22.1819C127.126 22.1819 125.531 21.6012 124.301 20.4399C123.087 19.2786 122.481 17.5452 122.481 15.2399V3.82592H124.301ZM145.26 22.1819C144.064 22.1819 143.007 21.9739 142.088 21.5579C141.187 21.1419 140.476 20.5612 139.956 19.8159C139.436 19.0706 139.159 18.2386 139.124 17.3199H141.048C141.135 18.2039 141.525 18.9839 142.218 19.6599C142.911 20.3186 143.925 20.6479 145.26 20.6479C146.491 20.6479 147.461 20.3359 148.172 19.7119C148.9 19.0706 149.264 18.2646 149.264 17.2939C149.264 16.5139 149.065 15.8899 148.666 15.4219C148.267 14.9366 147.773 14.5812 147.184 14.3559C146.595 14.1132 145.78 13.8532 144.74 13.5759C143.527 13.2466 142.565 12.9259 141.854 12.6139C141.143 12.3019 140.537 11.8166 140.034 11.1579C139.531 10.4992 139.28 9.60659 139.28 8.47992C139.28 7.54392 139.523 6.71192 140.008 5.98392C140.493 5.23859 141.178 4.65792 142.062 4.24192C142.946 3.82592 143.96 3.61792 145.104 3.61792C146.785 3.61792 148.137 4.03392 149.16 4.86592C150.2 5.68059 150.798 6.73792 150.954 8.03792H148.978C148.857 7.29259 148.449 6.63392 147.756 6.06192C147.063 5.47259 146.127 5.17792 144.948 5.17792C143.856 5.17792 142.946 5.47259 142.218 6.06192C141.49 6.63392 141.126 7.42259 141.126 8.42792C141.126 9.19059 141.325 9.80592 141.724 10.2739C142.123 10.7419 142.617 11.0972 143.206 11.3399C143.813 11.5826 144.627 11.8426 145.65 12.1199C146.829 12.4492 147.782 12.7786 148.51 13.1079C149.238 13.4199 149.853 13.9052 150.356 14.5639C150.859 15.2226 151.11 16.1066 151.11 17.2159C151.11 18.0652 150.885 18.8712 150.434 19.6339C149.983 20.3966 149.316 21.0119 148.432 21.4799C147.548 21.9479 146.491 22.1819 145.26 22.1819Z" fill="#2B3674"/>
</svg>
